<svg xmlns="http://www.w3.org/2000/svg" viewBox="0 0 249 118" width="249" height="118">
	<style>
		tspan { white-space:pre }
	</style>
	<path id="Jhonatan's Portfolio " fill="#000000" d="M26.19 45.44Q26.75 44.14 27.35 42.36Q27.98 40.58 28.64 38.65Q29.31 36.69 29.94 34.77Q30.6 32.8 31.23 31.19Q31.41 30.74 31.55 30.25Q31.69 29.76 31.9 29.41Q32.11 29.02 32.49 28.85Q32.88 28.67 33.58 28.81Q34 29.02 34.1 29.37Q34.21 29.72 34.14 30.11Q34.07 30.46 33.89 30.84Q33.75 31.19 33.65 31.44Q32.77 33.68 32.04 35.85Q31.34 37.98 30.64 40.12Q29.97 42.22 29.24 44.35Q28.5 46.45 27.59 48.63Q27.31 49.15 27.03 49.81Q26.75 50.45 26.4 51.04Q26.05 51.63 25.6 52.09Q25.14 52.55 24.58 52.72Q24.34 52.86 23.78 52.93Q23.25 52.97 22.62 52.97Q21.99 52.97 21.36 52.9Q20.77 52.83 20.42 52.72Q19.82 52.55 19.33 52.09Q18.88 51.6 18.49 50.97Q18.14 50.34 17.86 49.64Q17.62 48.94 17.41 48.27Q16.92 46.77 16.53 45.37Q16.18 43.97 15.83 42.57Q15.48 41.17 15.1 39.73Q14.71 38.27 14.19 36.66Q14.01 36.16 13.73 35.25Q13.49 34.31 13.24 33.3Q13.03 32.24 12.93 31.26Q12.86 30.25 13.1 29.58Q13.28 29.09 13.7 28.85Q14.12 28.6 14.68 28.5Q15.24 28.39 15.87 28.39Q16.53 28.39 17.16 28.39Q17.37 28.39 18.18 28.36Q18.98 28.32 19.89 28.39Q20.8 28.46 21.57 28.74Q22.34 29.02 22.52 29.65Q22.94 31.33 23.32 33.3Q23.71 35.22 24.06 37.28Q24.41 39.31 24.69 41.38Q25 43.41 25.25 45.27Q25.32 45.79 25.46 45.93Q25.6 46.07 25.74 46Q25.91 45.93 26.02 45.75Q26.16 45.58 26.19 45.44ZM43.48 31.79Q43.87 32.84 43.9 34.52Q43.94 36.2 43.9 38.13Q43.87 40.05 43.87 42.01Q43.87 43.97 44.15 45.55Q44.43 47.12 45.13 48.13Q45.83 49.12 47.23 49.12Q48.35 48.98 49.01 47.92Q49.71 46.84 50.06 45.34Q50.41 43.8 50.52 41.98Q50.62 40.12 50.59 38.44Q50.59 36.72 50.52 35.36Q50.45 33.96 50.45 33.3Q50.45 32.73 50.55 32.28Q50.62 31.89 50.76 31.58Q50.94 31.26 51.25 31.26Q51.88 31.26 52.23 31.37Q52.58 31.47 52.76 31.72Q52.93 31.96 52.97 32.42Q53 32.88 53 33.54L53 39.07Q53 40.68 52.93 42.01Q52.86 43.3 52.69 44.46Q52.51 45.58 52.16 46.59Q51.81 47.61 51.25 48.59Q50.83 49.47 50.17 50.27Q49.54 51.08 48.56 51.67Q47.61 52.27 46.35 52.55Q45.09 52.79 43.48 52.58Q41.35 52.37 39.91 51.49Q38.51 50.59 37.6 49.22Q36.73 47.82 36.27 46.07Q35.82 44.32 35.61 42.43Q35.43 40.54 35.4 38.65Q35.4 36.72 35.4 35.01L35.4 32.73Q35.4 32.21 35.64 31.86Q35.89 31.51 36.24 31.33Q36.62 31.12 37.08 31.05Q37.57 30.95 37.99 30.95L40.26 30.95Q40.82 30.95 41.35 30.98Q41.87 30.98 42.33 31.05Q42.78 31.12 43.06 31.3Q43.38 31.47 43.48 31.79ZM68.23 33.4L64.41 33.4Q64.27 34.17 64.24 35.39Q64.24 36.58 64.27 37.91Q64.31 39.24 64.34 40.58Q64.41 41.87 64.41 42.85Q64.83 42.99 65.18 43.02Q65.53 43.02 65.88 43.02Q66.23 42.99 66.58 42.95Q66.97 42.92 67.39 42.92Q68.16 42.95 68.65 42.99Q69.17 42.99 69.49 43.13Q69.8 43.23 69.94 43.55Q70.08 43.83 70.08 44.39Q70.08 44.81 69.38 44.95Q68.72 45.09 67.81 45.13Q66.9 45.13 65.92 45.13Q64.97 45.09 64.41 45.2Q64.27 45.79 64.27 46.42Q64.27 47.02 64.27 47.64Q64.31 48.27 64.27 48.94Q64.27 49.6 64.17 50.27Q64.52 50.41 65.18 50.41Q65.88 50.41 66.69 50.38Q67.53 50.34 68.37 50.34Q69.24 50.3 69.94 50.41Q70.64 50.48 71.06 50.73Q71.52 50.97 71.52 51.49Q71.52 52.02 71.1 52.3Q70.71 52.55 70.01 52.65Q69.31 52.76 68.37 52.76Q67.46 52.72 66.44 52.72Q65.01 52.58 63.12 52.72Q61.23 52.83 59.51 52.86Q57.8 52.86 56.57 52.58Q55.38 52.27 55.31 51.25Q55.1 47.4 55.14 43.45Q55.17 39.49 55.17 35.47Q55.17 35.01 55.17 34.48Q55.17 33.92 55.21 33.44Q55.24 32.91 55.28 32.52Q55.35 32.1 55.45 31.89Q55.7 31.68 56.47 31.58Q57.24 31.44 58.15 31.4Q59.09 31.33 59.97 31.33Q60.84 31.3 61.37 31.3L66.44 31.3Q67.11 31.3 67.95 31.23Q68.79 31.16 69.52 31.23Q70.26 31.26 70.75 31.51Q71.24 31.75 71.24 32.42Q71.24 32.88 70.89 33.08Q70.57 33.3 70.08 33.36Q69.63 33.44 69.1 33.44Q68.58 33.4 68.23 33.4ZM92.1 40.36Q92.76 40.4 93.15 40.92Q93.57 41.41 93.6 42.01Q93.64 42.57 93.25 43.06Q92.87 43.52 91.92 43.45Q91.43 43.41 91.08 43.45Q90.73 43.45 90.42 43.48Q90.1 43.48 89.75 43.52Q89.44 43.52 89.02 43.52Q89.02 43.97 88.98 44.32Q88.98 44.67 88.98 45.05Q88.98 45.41 88.95 45.83Q88.95 46.24 88.95 46.77Q88.84 47.47 88.28 47.85Q87.76 48.24 87.13 48.27Q86.5 48.31 85.94 47.99Q85.41 47.64 85.31 46.95Q85.31 46.03 85.27 45.41Q85.27 44.74 85.27 43.69Q84.36 43.69 83.7 43.73Q83.07 43.73 82.16 43.73Q81.53 43.73 81.18 43.23Q80.83 42.71 80.76 42.08Q80.69 41.45 80.93 40.96Q81.18 40.44 81.81 40.44Q82.93 40.26 83.7 40.19Q84.5 40.09 85.41 40.09Q85.41 39.56 85.34 39.14Q85.27 38.72 85.24 38.34Q85.2 37.95 85.24 37.56Q85.27 37.18 85.45 36.72Q85.55 36.2 86.04 35.92Q86.57 35.64 87.16 35.64Q87.76 35.64 88.21 35.95Q88.7 36.23 88.7 36.86Q88.88 37.77 88.95 38.58Q89.02 39.38 89.02 40.3Q89.89 40.3 90.49 40.26Q91.12 40.23 92.1 40.36ZM117.33 45.44Q117.89 44.14 118.49 42.36Q119.12 40.58 119.78 38.65Q120.45 36.69 121.08 34.77Q121.74 32.8 122.37 31.19Q122.55 30.74 122.69 30.25Q122.83 29.76 123.04 29.41Q123.25 29.02 123.63 28.85Q124.02 28.67 124.72 28.81Q125.14 29.02 125.24 29.37Q125.35 29.72 125.28 30.11Q125.21 30.46 125.03 30.84Q124.89 31.19 124.79 31.44Q123.91 33.68 123.18 35.85Q122.48 37.98 121.78 40.12Q121.11 42.22 120.38 44.35Q119.64 46.45 118.73 48.63Q118.45 49.15 118.17 49.81Q117.89 50.45 117.54 51.04Q117.19 51.63 116.74 52.09Q116.28 52.55 115.72 52.72Q115.48 52.86 114.92 52.93Q114.39 52.97 113.76 52.97Q113.13 52.97 112.5 52.9Q111.91 52.83 111.56 52.72Q110.96 52.55 110.47 52.09Q110.02 51.6 109.63 50.97Q109.28 50.34 109 49.64Q108.76 48.94 108.55 48.27Q108.06 46.77 107.67 45.37Q107.32 43.97 106.97 42.57Q106.62 41.17 106.24 39.73Q105.85 38.27 105.33 36.66Q105.15 36.16 104.87 35.25Q104.63 34.31 104.38 33.3Q104.17 32.24 104.07 31.26Q104 30.25 104.24 29.58Q104.42 29.09 104.84 28.85Q105.26 28.6 105.82 28.5Q106.38 28.39 107.01 28.39Q107.67 28.39 108.3 28.39Q108.51 28.39 109.32 28.36Q110.12 28.32 111.03 28.39Q111.94 28.46 112.71 28.74Q113.48 29.02 113.66 29.65Q114.08 31.33 114.46 33.3Q114.85 35.22 115.2 37.28Q115.55 39.31 115.83 41.38Q116.14 43.41 116.39 45.27Q116.46 45.79 116.6 45.93Q116.74 46.07 116.88 46Q117.05 45.93 117.16 45.75Q117.3 45.58 117.33 45.44ZM134.62 31.79Q135.01 32.84 135.04 34.52Q135.08 36.2 135.04 38.13Q135.01 40.05 135.01 42.01Q135.01 43.97 135.29 45.55Q135.57 47.12 136.27 48.13Q136.97 49.12 138.37 49.12Q139.49 48.98 140.15 47.92Q140.85 46.84 141.2 45.34Q141.55 43.8 141.66 41.98Q141.76 40.12 141.73 38.44Q141.73 36.72 141.66 35.36Q141.59 33.96 141.59 33.3Q141.59 32.73 141.69 32.28Q141.76 31.89 141.9 31.58Q142.08 31.26 142.39 31.26Q143.02 31.26 143.37 31.37Q143.72 31.47 143.9 31.72Q144.07 31.96 144.11 32.42Q144.14 32.88 144.14 33.54L144.14 39.07Q144.14 40.68 144.07 42.01Q144 43.3 143.83 44.46Q143.65 45.58 143.3 46.59Q142.95 47.61 142.39 48.59Q141.97 49.47 141.31 50.27Q140.68 51.08 139.7 51.67Q138.75 52.27 137.49 52.55Q136.23 52.79 134.62 52.58Q132.49 52.37 131.05 51.49Q129.65 50.59 128.74 49.22Q127.87 47.82 127.41 46.07Q126.96 44.32 126.75 42.43Q126.57 40.54 126.54 38.65Q126.54 36.72 126.54 35.01L126.54 32.73Q126.54 32.21 126.78 31.86Q127.03 31.51 127.38 31.33Q127.76 31.12 128.22 31.05Q128.71 30.95 129.13 30.95L131.4 30.95Q131.96 30.95 132.49 30.98Q133.01 30.98 133.47 31.05Q133.92 31.12 134.2 31.3Q134.52 31.47 134.62 31.79ZM159.37 33.4L155.55 33.4Q155.41 34.17 155.38 35.39Q155.38 36.58 155.41 37.91Q155.45 39.24 155.48 40.58Q155.55 41.87 155.55 42.85Q155.97 42.99 156.32 43.02Q156.67 43.02 157.02 43.02Q157.37 42.99 157.72 42.95Q158.11 42.92 158.53 42.92Q159.3 42.95 159.79 42.99Q160.31 42.99 160.63 43.13Q160.94 43.23 161.08 43.55Q161.22 43.83 161.22 44.39Q161.22 44.81 160.52 44.95Q159.86 45.09 158.95 45.13Q158.04 45.13 157.06 45.13Q156.11 45.09 155.55 45.2Q155.41 45.79 155.41 46.42Q155.41 47.02 155.41 47.64Q155.45 48.27 155.41 48.94Q155.41 49.6 155.31 50.27Q155.66 50.41 156.32 50.41Q157.02 50.41 157.83 50.38Q158.67 50.34 159.51 50.34Q160.38 50.3 161.08 50.41Q161.78 50.48 162.2 50.73Q162.66 50.97 162.66 51.49Q162.66 52.02 162.24 52.3Q161.85 52.55 161.15 52.65Q160.45 52.76 159.51 52.76Q158.6 52.72 157.58 52.72Q156.15 52.58 154.26 52.72Q152.37 52.83 150.65 52.86Q148.94 52.86 147.71 52.58Q146.52 52.27 146.45 51.25Q146.24 47.4 146.28 43.45Q146.31 39.49 146.31 35.47Q146.31 35.01 146.31 34.48Q146.31 33.92 146.35 33.44Q146.38 32.91 146.42 32.52Q146.49 32.1 146.59 31.89Q146.84 31.68 147.61 31.58Q148.38 31.44 149.29 31.4Q150.23 31.33 151.11 31.33Q151.98 31.3 152.51 31.3L157.58 31.3Q158.25 31.3 159.09 31.23Q159.93 31.16 160.66 31.23Q161.4 31.26 161.89 31.51Q162.38 31.75 162.38 32.42Q162.38 32.88 162.03 33.08Q161.71 33.3 161.22 33.36Q160.77 33.44 160.24 33.44Q159.72 33.4 159.37 33.4ZM176.66 33.75Q176.59 33.85 176.55 34.41Q176.52 34.94 176.52 35.78Q176.52 36.62 176.52 37.63Q176.55 38.65 176.59 39.7Q176.62 40.71 176.62 41.7Q176.66 42.64 176.66 43.34L176.66 50.9Q176.66 51.35 176.59 51.91Q176.52 52.48 176.1 52.65Q175.92 52.72 175.4 52.76Q174.91 52.79 174.21 52.83Q173.54 52.83 172.77 52.83Q172 52.83 171.3 52.83Q170.64 52.79 170.15 52.79Q169.66 52.76 169.52 52.76Q168.82 52.76 168.43 52.58Q168.05 52.41 168.05 51.6L168.05 46.07L168.05 33.92Q168.05 33.78 167.52 33.75Q167.03 33.72 166.37 33.75Q165.74 33.75 165.14 33.78Q164.58 33.78 164.48 33.75Q163.95 33.72 163.67 33.64Q163.43 33.54 163.32 33.36Q163.25 33.19 163.25 32.88Q163.29 32.52 163.29 32Q163.5 31.68 163.78 31.58Q164.06 31.44 164.34 31.44Q164.65 31.4 164.97 31.44Q165.28 31.47 165.6 31.47L179.84 31.47Q180.4 31.47 180.72 31.51Q181.07 31.51 181.24 31.61Q181.45 31.72 181.52 31.96Q181.59 32.21 181.59 32.63Q181.59 33.02 181.38 33.22Q181.21 33.44 180.93 33.58Q180.68 33.68 180.37 33.72Q180.09 33.75 179.84 33.75Q179 33.75 178.16 33.64Q177.32 33.54 176.66 33.75ZM198.04 31.82Q198.25 31.82 198.36 31.96Q198.5 32.1 198.53 32.31Q198.6 32.49 198.6 32.7Q198.64 32.88 198.64 32.98Q198.53 33.44 198.18 33.61Q197.83 33.75 197.41 33.78Q196.99 33.78 196.57 33.78Q196.19 33.75 195.98 33.85Q195.77 36.72 195.87 39.8Q195.98 42.85 195.98 46.17Q195.98 47.51 196.01 48.59Q196.05 49.67 196.29 50.59Q196.96 50.59 197.31 50.62Q197.66 50.66 198.32 50.87Q198.53 51.08 198.6 51.39Q198.67 51.7 198.57 51.98Q198.46 52.27 198.18 52.48Q197.9 52.65 197.45 52.65Q196.22 52.65 194.65 52.72Q193.11 52.76 191.36 52.83Q189.61 52.86 187.72 52.9Q185.83 52.93 183.97 52.93Q183.52 52.83 183.31 52.55Q183.13 52.23 183.1 51.91Q183.1 51.56 183.17 51.28Q183.27 50.97 183.38 50.87Q183.48 50.66 183.83 50.62Q184.18 50.59 184.6 50.62Q185.06 50.66 185.51 50.69Q185.97 50.69 186.32 50.59Q186.53 46.59 186.42 42.22Q186.32 37.84 186.32 33.85Q185.76 33.75 185.13 33.72Q184.53 33.68 184.01 33.58Q183.48 33.47 183.13 33.22Q182.78 32.94 182.78 32.38Q182.89 31.96 183.17 31.79Q183.48 31.58 183.87 31.54Q184.25 31.47 184.67 31.51Q185.09 31.51 185.41 31.51L191.88 31.51Q193.46 31.51 195.07 31.54Q196.71 31.58 198.04 31.82ZM209.42 33.82Q209.42 36.13 209.52 38.69Q209.63 41.24 209.42 43.55Q210.08 43.55 210.92 43.48Q211.76 43.41 212.46 43.45Q213.16 43.45 213.58 43.66Q214.04 43.86 213.93 44.39Q213.93 45.09 213.37 45.34Q212.85 45.55 212.15 45.58Q211.45 45.62 210.75 45.55Q210.05 45.48 209.7 45.58Q209.7 46.07 209.73 47.05Q209.8 47.99 209.8 49.01Q209.8 50.02 209.73 50.9Q209.66 51.74 209.42 51.95Q209.28 52.27 208.58 52.48Q207.91 52.65 206.97 52.76Q206.02 52.86 204.94 52.86Q203.89 52.86 202.98 52.76Q202.07 52.65 201.4 52.48Q200.77 52.27 200.7 51.95Q200.53 51.15 200.39 49.47Q200.28 47.78 200.18 45.75Q200.11 43.69 200.07 41.48Q200.04 39.28 200.07 37.39Q200.11 35.47 200.18 34.1Q200.25 32.73 200.39 32.35Q200.6 31.79 201.26 31.51Q201.96 31.19 202.91 31.09Q203.89 30.98 205.01 31.02Q206.16 31.05 207.28 31.16Q208.4 31.23 209.45 31.33Q210.5 31.4 211.24 31.44Q212.01 31.47 212.81 31.44Q213.65 31.4 214.32 31.51Q215.02 31.61 215.44 31.93Q215.86 32.24 215.79 32.98Q215.72 33.47 214.91 33.58Q214.14 33.68 213.09 33.68Q212.08 33.64 211.03 33.64Q209.98 33.61 209.42 33.82ZM225.27 32.88Q225.59 33.54 225.97 34.45Q226.39 35.33 226.81 36.27Q227.27 37.21 227.76 38.13Q228.25 39 228.77 39.66Q229.12 39.31 229.82 38.34Q230.52 37.35 231.29 36.23Q232.06 35.08 232.76 34.06Q233.46 33.02 233.81 32.56Q233.92 32.45 234.09 32.14Q234.27 31.82 234.55 31.58Q234.83 31.3 235.21 31.23Q235.6 31.12 236.19 31.44Q236.72 31.65 236.65 32.21Q236.61 32.73 236.16 33.58Q235.7 34.38 234.9 35.5Q234.13 36.58 233.25 37.91Q233.08 38.16 232.69 38.69Q232.31 39.21 231.89 39.8Q231.5 40.36 231.19 40.85Q230.91 41.31 230.91 41.45Q230.94 42.92 230.91 44.08Q230.87 45.2 230.77 46.28Q230.7 47.33 230.63 48.48Q230.56 49.64 230.56 51.15Q230.56 51.81 230.07 52.16Q229.58 52.51 228.84 52.65Q228.14 52.79 227.34 52.79Q226.53 52.76 225.87 52.65Q225.2 52.65 224.57 52.62Q223.94 52.58 223.42 52.37Q222.93 52.13 222.61 51.67Q222.3 51.18 222.3 50.3L222.3 42.88Q222.12 42.22 221.56 41.59Q221 40.92 220.55 40.26Q219.5 38.58 218.66 36.8Q217.82 34.97 217.01 33.4Q216.38 32.17 216.49 31.47Q216.59 30.74 217.57 30.81Q218.17 30.88 219.04 30.84Q219.95 30.81 220.86 30.81Q221.81 30.81 222.68 30.88Q223.56 30.95 224.12 31.16Q224.78 31.37 224.92 31.89Q225.06 32.42 225.27 32.88ZM60.81 73.65Q60.7 73.65 60.67 74.25Q60.63 74.81 60.6 75.75Q60.6 76.66 60.6 77.85Q60.6 79.04 60.6 80.27Q60.63 81.45 60.63 82.58Q60.67 83.69 60.67 84.53Q60.67 86.56 60.77 88.7Q60.91 90.84 60.91 92.87Q60.91 93.35 60.88 93.81Q60.84 94.27 60.35 94.55Q60.04 94.86 59.09 94.97Q58.18 95.07 57.1 95.07Q56.05 95.07 55.07 95.03Q54.09 94.97 53.67 94.97Q52.37 94.97 51.6 94.51Q50.87 94.06 50.55 92.97Q50.48 92.72 50.48 92.03Q50.48 91.29 50.48 90.45Q50.52 89.61 50.52 88.88Q50.55 88.14 50.55 87.83Q50.48 84.43 50.34 80.65Q50.2 76.87 50.2 73.47Q50.2 73.37 49.68 73.33Q49.19 73.27 48.52 73.27Q47.89 73.23 47.3 73.23Q46.74 73.23 46.6 73.23Q46.35 73.23 45.97 73.19Q45.62 73.13 45.34 72.63Q45.23 72.5 45.23 72.25Q45.23 71.97 45.27 71.76Q45.34 71.52 45.44 71.34Q45.55 71.13 45.65 71.09Q46 70.95 46.77 70.88Q47.54 70.81 48.49 70.78Q49.47 70.75 50.52 70.75Q51.6 70.75 52.58 70.75Q53.6 70.75 54.4 70.78Q55.21 70.78 55.63 70.78Q57.69 70.78 59.69 70.85Q61.68 70.92 63.99 70.92Q65.29 70.92 65.67 71.13Q66.06 71.34 66.06 72.11Q66.06 72.78 65.88 73.09Q65.71 73.37 65.36 73.47Q65.04 73.58 64.55 73.58Q64.1 73.58 63.54 73.58Q62.77 73.58 62.21 73.58Q61.68 73.58 60.81 73.65ZM74.28 69.73Q77.01 69.55 79.04 69.94Q81.07 70.29 82.54 71.23Q84.05 72.18 85.03 73.75Q86.04 75.3 86.67 77.53Q86.92 78.48 87.06 79.28Q87.2 80.06 87.23 81Q87.27 81.94 87.2 83.17Q87.16 84.36 87.02 86.08Q86.74 88.28 85.62 90.17Q84.5 92.03 82.75 93.32Q81.04 94.62 78.83 95.21Q76.66 95.77 74.28 95.35Q71.94 94.97 69.98 93.63Q68.02 92.27 66.65 90.13Q65.81 88.94 65.36 87.3Q64.9 85.66 64.76 83.87Q64.66 82.09 64.87 80.34Q65.08 78.55 65.6 77.08Q66.16 75.72 67.04 74.45Q67.95 73.19 69.07 72.18Q70.22 71.16 71.52 70.53Q72.85 69.87 74.28 69.73ZM84.29 77.53Q84.05 76.66 83.42 75.54Q82.79 74.42 82.09 73.61Q81.53 73.09 80.48 72.67Q79.43 72.25 78.34 72.11Q77.29 71.94 76.45 72.11Q75.61 72.28 75.47 72.95Q75.33 73.86 75.33 75.22Q75.33 76.59 75.37 78.16Q75.44 79.74 75.47 81.38Q75.54 83.03 75.51 84.5Q75.47 85.31 75.44 86.46Q75.4 87.58 75.54 88.66Q75.68 89.72 76.07 90.56Q76.45 91.39 77.26 91.6Q78.87 92.06 80.2 91.64Q81.53 91.22 82.51 90.24Q83.49 89.22 84.12 87.75Q84.75 86.25 84.96 84.53Q85.2 82.82 85.03 81Q84.89 79.18 84.29 77.53ZM86.6 92.97Q86.32 90.56 86.18 88.7Q86.04 86.84 85.97 85.03Q85.9 83.17 85.87 81.14Q85.87 79.08 85.87 76.28Q85.87 75.72 85.8 74.98Q85.76 74.25 85.76 73.55Q85.76 72.84 85.83 72.28Q85.94 71.69 86.22 71.41Q86.53 71.13 86.99 70.99Q87.48 70.85 88.04 70.78Q88.6 70.71 89.19 70.71Q89.79 70.67 90.38 70.67Q92.48 70.53 94.37 70.6Q96.3 70.67 97.91 70.95Q99.52 71.23 100.74 71.72Q102 72.22 102.7 72.91Q104.38 74.59 105.43 76.56Q106.52 78.48 106.8 81Q107.08 82.68 106.97 84.81Q106.9 86.91 106.06 89.19Q105.64 90.31 104.84 91.19Q104.07 92.03 103.09 92.66Q102.11 93.28 101.02 93.74Q99.94 94.16 98.96 94.44Q97.56 94.72 95.91 94.75Q94.27 94.79 92.59 94.79Q91.89 94.79 90.91 94.75Q89.96 94.72 89.05 94.58Q88.14 94.41 87.44 94.06Q86.74 93.67 86.6 92.97ZM102.35 90.34Q103.54 89.22 104.1 87.41Q104.7 85.59 104.66 83.59Q104.63 81.56 104.03 79.6Q103.44 77.6 102.32 76.13Q101.23 74.66 99.62 73.93Q98.01 73.19 95.95 73.65Q95.81 73.79 95.74 74.31Q95.67 74.81 95.63 75.44Q95.6 76.06 95.6 76.69Q95.6 77.33 95.6 77.75Q95.6 81.7 95.77 85.34Q95.95 88.98 95.95 91.81Q96.93 92.09 97.84 92.06Q98.75 91.99 99.55 91.78Q100.36 91.53 101.06 91.15Q101.76 90.77 102.35 90.34ZM118.87 69.73Q121.6 69.55 123.63 69.94Q125.66 70.29 127.13 71.23Q128.64 72.18 129.62 73.75Q130.63 75.3 131.26 77.53Q131.51 78.48 131.65 79.28Q131.79 80.06 131.82 81Q131.86 81.94 131.79 83.17Q131.75 84.36 131.61 86.08Q131.33 88.28 130.21 90.17Q129.09 92.03 127.34 93.32Q125.63 94.62 123.42 95.21Q121.25 95.77 118.87 95.35Q116.53 94.97 114.57 93.63Q112.61 92.27 111.24 90.13Q110.4 88.94 109.95 87.3Q109.49 85.66 109.35 83.87Q109.25 82.09 109.46 80.34Q109.67 78.55 110.19 77.08Q110.75 75.72 111.63 74.45Q112.54 73.19 113.66 72.18Q114.81 71.16 116.11 70.53Q117.44 69.87 118.87 69.73ZM128.88 77.53Q128.64 76.66 128.01 75.54Q127.38 74.42 126.68 73.61Q126.12 73.09 125.07 72.67Q124.02 72.25 122.93 72.11Q121.88 71.94 121.04 72.11Q120.2 72.28 120.06 72.95Q119.92 73.86 119.92 75.22Q119.92 76.59 119.96 78.16Q120.03 79.74 120.06 81.38Q120.13 83.03 120.1 84.5Q120.06 85.31 120.03 86.46Q119.99 87.58 120.13 88.66Q120.27 89.72 120.66 90.56Q121.04 91.39 121.85 91.6Q123.46 92.06 124.79 91.64Q126.12 91.22 127.1 90.24Q128.08 89.22 128.71 87.75Q129.34 86.25 129.55 84.53Q129.79 82.82 129.62 81Q129.48 79.18 128.88 77.53ZM140.43 83.91Q140.82 83.91 141.03 84.39Q141.27 84.85 141.27 85.41Q141.27 85.94 140.99 86.42Q140.71 86.88 140.05 86.88L133.75 86.88Q133.15 86.95 132.8 86.5Q132.49 86.04 132.45 85.48Q132.42 84.88 132.66 84.39Q132.94 83.91 133.54 83.91Q134.2 83.84 135.25 83.84Q136.3 83.8 137.35 83.84Q138.4 83.84 139.28 83.87Q140.15 83.91 140.43 83.91ZM152.26 70.57Q153.94 70.57 155.31 70.81Q156.71 71.03 157.83 71.8Q158.95 72.56 159.75 74.03Q160.56 75.5 161.12 77.99Q161.68 80.47 161.92 84.15Q162.2 87.83 162.2 93Q162.2 93.67 161.99 94.06Q161.78 94.44 161.26 94.62Q160.73 94.79 159.82 94.83Q158.91 94.83 157.51 94.75Q156.11 94.83 155.38 94.72Q154.68 94.62 154.36 94.37Q154.05 94.13 154.01 93.78Q153.98 93.42 153.98 92.97Q153.94 91.95 153.91 91.22Q153.91 90.48 153.87 89.85Q153.87 89.19 153.87 88.56Q153.87 87.89 153.87 87.09Q152.72 87.06 151.67 87.09Q150.65 87.09 149.64 87.09Q148.66 87.09 147.64 87.13Q146.66 87.13 145.54 87.09Q145.54 88.25 145.54 89.12Q145.58 90 145.58 90.77Q145.58 91.5 145.54 92.2Q145.51 92.9 145.4 93.7Q145.37 93.91 145.33 94.13Q145.3 94.3 145.16 94.47Q145.02 94.62 144.7 94.69Q144.42 94.75 143.86 94.72Q143.02 94.79 142.85 94.41Q142.71 93.98 142.71 93.63Q142.74 90.97 142.78 88.03Q142.85 85.09 143.16 82.3Q143.51 79.5 144.32 77.05Q145.12 74.56 146.7 72.81Q147.57 72 148.9 71.3Q150.27 70.57 152.26 70.57ZM153.87 85.13L153.87 83.06Q153.87 80.19 153.7 78.41Q153.56 76.59 153.14 75.58Q152.75 74.56 152.05 74.21Q151.39 73.83 150.3 73.83Q149.46 73.83 148.8 74.49Q148.13 75.16 147.61 76.2Q147.08 77.25 146.7 78.55Q146.35 79.81 146.1 81.07Q145.86 82.33 145.72 83.41Q145.61 84.5 145.61 85.13Q146.87 85.09 147.5 85.09Q148.13 85.06 148.8 85.09Q149.46 85.09 150.55 85.13Q151.67 85.13 153.87 85.13ZM174.31 88.07Q174.31 89.3 174.42 90.63Q174.52 91.92 174.52 93.04Q174.52 93.18 174.52 93.42Q174.52 93.67 174.49 93.91Q174.49 94.16 174.45 94.37Q174.42 94.58 174.31 94.65Q174.21 94.75 173.68 94.86Q173.19 94.97 172.42 95.07Q171.69 95.14 170.78 95.21Q169.9 95.25 168.99 95.21Q168.12 95.17 167.31 95.03Q166.51 94.9 165.98 94.65Q165.49 94.41 165.21 93.91Q164.93 93.39 165 92.94Q164.83 90.45 164.76 88.14Q164.72 85.83 164.72 83.52Q164.72 81.21 164.76 78.83Q164.83 76.45 164.86 73.79Q164.79 73.05 165 72.53Q165.25 71.97 165.6 71.58Q165.95 71.2 166.33 71.03Q166.75 70.81 167 70.78Q168.61 70.6 170.36 70.57Q172.14 70.5 173.82 70.75Q175.54 70.99 177.08 71.58Q178.65 72.14 179.81 73.23Q181 74.28 181.7 75.89Q182.43 77.47 182.47 79.7Q182.47 80.51 182.4 81.38Q182.36 82.22 182.15 83.03Q181.98 83.84 181.66 84.57Q181.35 85.27 180.82 85.83Q180.26 86.42 179.49 86.84Q178.72 87.23 177.85 87.51Q176.97 87.75 176.06 87.89Q175.15 88 174.31 88.07ZM174.24 73.02Q174.24 73.16 174.24 73.33Q174.24 73.47 174.28 73.65Q174.28 73.83 174.31 74.03Q174.42 75.4 174.45 76.97Q174.49 78.55 174.45 80.16Q174.45 81.73 174.42 83.24Q174.42 84.75 174.45 86Q175.12 86 175.85 85.94Q176.62 85.83 177.29 85.66Q177.99 85.44 178.51 85.13Q179.07 84.81 179.32 84.36Q179.81 83.45 180.05 82.26Q180.33 81.07 180.3 79.84Q180.3 78.58 179.91 77.39Q179.56 76.17 178.83 75.22Q178.13 74.28 176.97 73.69Q175.85 73.05 174.24 73.02ZM194.26 88.07Q194.26 89.3 194.37 90.63Q194.47 91.92 194.47 93.04Q194.47 93.18 194.47 93.42Q194.47 93.67 194.44 93.91Q194.44 94.16 194.4 94.37Q194.37 94.58 194.26 94.65Q194.16 94.75 193.63 94.86Q193.14 94.97 192.37 95.07Q191.64 95.14 190.73 95.21Q189.85 95.25 188.94 95.21Q188.07 95.17 187.26 95.03Q186.46 94.9 185.93 94.65Q185.44 94.41 185.16 93.91Q184.88 93.39 184.95 92.94Q184.78 90.45 184.71 88.14Q184.67 85.83 184.67 83.52Q184.67 81.21 184.71 78.83Q184.78 76.45 184.81 73.79Q184.74 73.05 184.95 72.53Q185.2 71.97 185.55 71.58Q185.9 71.2 186.28 71.03Q186.7 70.81 186.95 70.78Q188.56 70.6 190.31 70.57Q192.09 70.5 193.77 70.75Q195.49 70.99 197.03 71.58Q198.6 72.14 199.76 73.23Q200.95 74.28 201.65 75.89Q202.38 77.47 202.42 79.7Q202.42 80.51 202.35 81.38Q202.31 82.22 202.1 83.03Q201.93 83.84 201.61 84.57Q201.3 85.27 200.77 85.83Q200.21 86.42 199.44 86.84Q198.67 87.23 197.8 87.51Q196.92 87.75 196.01 87.89Q195.1 88 194.26 88.07ZM194.19 73.02Q194.19 73.16 194.19 73.33Q194.19 73.47 194.23 73.65Q194.23 73.83 194.26 74.03Q194.37 75.4 194.4 76.97Q194.44 78.55 194.4 80.16Q194.4 81.73 194.37 83.24Q194.37 84.75 194.4 86Q195.07 86 195.8 85.94Q196.57 85.83 197.24 85.66Q197.94 85.44 198.46 85.13Q199.02 84.81 199.27 84.36Q199.76 83.45 200 82.26Q200.28 81.07 200.25 79.84Q200.25 78.58 199.86 77.39Q199.51 76.17 198.78 75.22Q198.08 74.28 196.92 73.69Q195.8 73.05 194.19 73.02Z" />
</svg>